<mxfile host="drawio-plugin" modified="2021-11-25T18:17:08.988Z" agent="5.0 (Macintosh; Intel Mac OS X 12_0_1) AppleWebKit/537.36 (KHTML, like Gecko) Chrome/89.0.4389.114 Safari/537.36" etag="G023ePbdsZSZsbbvt2LY" version="14.7.4" type="embed"><diagram id="D-ZPbFm5kCAv-HBzowlL" name="Page-1"><mxGraphModel dx="2626" dy="1055" grid="1" gridSize="10" guides="1" tooltips="1" connect="1" arrows="1" fold="1" page="1" pageScale="1" pageWidth="1169" pageHeight="1654" math="0" shadow="0"><root><mxCell id="0"/><mxCell id="1" parent="0"/><mxCell id="SEt0Nu8GCRH9RDk-5Gde-22" value="" style="rounded=0;whiteSpace=wrap;html=1;shadow=0;fillColor=none;" parent="1" vertex="1"><mxGeometry x="-400" y="710" width="985" height="910" as="geometry"/></mxCell><mxCell id="SEt0Nu8GCRH9RDk-5Gde-23" value="" style="rounded=0;whiteSpace=wrap;html=1;shadow=0;fillColor=none;" parent="1" vertex="1"><mxGeometry x="600" y="710" width="560" height="910" as="geometry"/></mxCell><mxCell id="SEt0Nu8GCRH9RDk-5Gde-9" value="CLIENT" style="swimlane;fontStyle=1;align=center;verticalAlign=top;childLayout=stackLayout;horizontal=1;startSize=26;horizontalStack=0;resizeParent=1;resizeParentMax=0;resizeLast=0;collapsible=1;marginBottom=0;" parent="1" vertex="1"><mxGeometry x="-10" y="30" width="160" height="140" as="geometry"/></mxCell><mxCell id="64" value="PK_CLIENT&#10;------- CLIENT_ID" style="text;strokeColor=none;fillColor=none;align=left;verticalAlign=top;spacingLeft=4;spacingRight=4;overflow=hidden;rotatable=0;points=[[0,0.5],[1,0.5]];portConstraint=eastwest;" parent="SEt0Nu8GCRH9RDk-5Gde-9" vertex="1"><mxGeometry y="26" width="160" height="34" as="geometry"/></mxCell><mxCell id="SEt0Nu8GCRH9RDk-5Gde-11" value="" style="line;strokeWidth=1;fillColor=none;align=left;verticalAlign=middle;spacingTop=-1;spacingLeft=3;spacingRight=3;rotatable=0;labelPosition=right;points=[];portConstraint=eastwest;" parent="SEt0Nu8GCRH9RDk-5Gde-9" vertex="1"><mxGeometry y="60" width="160" height="8" as="geometry"/></mxCell><mxCell id="89" value="CLIENT_NOM&#10;CLIENT_PRENOM&#10;CLIENT_MAIL&#10;CLIENT_MDP" style="text;strokeColor=none;fillColor=none;align=left;verticalAlign=top;spacingLeft=4;spacingRight=4;overflow=hidden;rotatable=0;points=[[0,0.5],[1,0.5]];portConstraint=eastwest;" vertex="1" parent="SEt0Nu8GCRH9RDk-5Gde-9"><mxGeometry y="68" width="160" height="72" as="geometry"/></mxCell><mxCell id="SEt0Nu8GCRH9RDk-5Gde-13" value="COLLABORATEUR" style="swimlane;fontStyle=1;align=center;verticalAlign=top;childLayout=stackLayout;horizontal=1;startSize=26;horizontalStack=0;resizeParent=1;resizeParentMax=0;resizeLast=0;collapsible=1;marginBottom=0;" parent="1" vertex="1"><mxGeometry x="400" y="20" width="180" height="140" as="geometry"/></mxCell><mxCell id="65" value="PK_COLLABORATEUR&#10;------- COLLABORATEUR_ID" style="text;strokeColor=none;fillColor=none;align=left;verticalAlign=top;spacingLeft=4;spacingRight=4;overflow=hidden;rotatable=0;points=[[0,0.5],[1,0.5]];portConstraint=eastwest;" parent="SEt0Nu8GCRH9RDk-5Gde-13" vertex="1"><mxGeometry y="26" width="180" height="34" as="geometry"/></mxCell><mxCell id="SEt0Nu8GCRH9RDk-5Gde-14" value="" style="line;strokeWidth=1;fillColor=none;align=left;verticalAlign=middle;spacingTop=-1;spacingLeft=3;spacingRight=3;rotatable=0;labelPosition=right;points=[];portConstraint=eastwest;" parent="SEt0Nu8GCRH9RDk-5Gde-13" vertex="1"><mxGeometry y="60" width="180" height="8" as="geometry"/></mxCell><mxCell id="91" value="COLLABORATEUR_NOM&#10;COLLABORATEUR_PRENOM&#10;COLLABORATEUR_MAIL&#10;COLLABORATEUR_MDP" style="text;strokeColor=none;fillColor=none;align=left;verticalAlign=top;spacingLeft=4;spacingRight=4;overflow=hidden;rotatable=0;points=[[0,0.5],[1,0.5]];portConstraint=eastwest;" vertex="1" parent="SEt0Nu8GCRH9RDk-5Gde-13"><mxGeometry y="68" width="180" height="72" as="geometry"/></mxCell><mxCell id="SEt0Nu8GCRH9RDk-5Gde-24" value="&lt;font style=&quot;font-size: 19px&quot;&gt;WavCom&lt;/font&gt;" style="text;html=1;strokeColor=none;fillColor=none;align=center;verticalAlign=middle;whiteSpace=wrap;rounded=0;shadow=0;fontColor=#000000;" parent="1" vertex="1"><mxGeometry x="-380" y="732" width="120" height="20" as="geometry"/></mxCell><mxCell id="SEt0Nu8GCRH9RDk-5Gde-25" value="&lt;font style=&quot;font-size: 19px&quot;&gt;WavMap&lt;/font&gt;" style="text;html=1;strokeColor=none;fillColor=none;align=center;verticalAlign=middle;whiteSpace=wrap;rounded=0;shadow=0;fontColor=#000000;" parent="1" vertex="1"><mxGeometry x="600" y="720" width="110" height="20" as="geometry"/></mxCell><mxCell id="SEt0Nu8GCRH9RDk-5Gde-26" value="&lt;font style=&quot;font-size: 24px&quot;&gt;WavContact&lt;/font&gt;" style="text;html=1;strokeColor=none;fillColor=none;align=center;verticalAlign=middle;whiteSpace=wrap;rounded=0;shadow=0;fontColor=#000000;" parent="1" vertex="1"><mxGeometry x="-360" y="20" width="180" height="20" as="geometry"/></mxCell><mxCell id="SEt0Nu8GCRH9RDk-5Gde-27" style="edgeStyle=orthogonalEdgeStyle;rounded=0;orthogonalLoop=1;jettySize=auto;html=1;exitX=0.5;exitY=1;exitDx=0;exitDy=0;fontColor=#000000;" parent="1" source="SEt0Nu8GCRH9RDk-5Gde-26" target="SEt0Nu8GCRH9RDk-5Gde-26" edge="1"><mxGeometry relative="1" as="geometry"/></mxCell><mxCell id="SEt0Nu8GCRH9RDk-5Gde-48" value="LIEU" style="swimlane;fontStyle=1;align=center;verticalAlign=top;childLayout=stackLayout;horizontal=1;startSize=26;horizontalStack=0;resizeParent=1;resizeParentMax=0;resizeLast=0;collapsible=1;marginBottom=0;" parent="1" vertex="1"><mxGeometry x="610" y="940" width="180" height="170" as="geometry"/></mxCell><mxCell id="SEt0Nu8GCRH9RDk-5Gde-49" value="PK_LIEU&#10;------- LIEU_ID" style="text;strokeColor=none;fillColor=none;align=left;verticalAlign=top;spacingLeft=4;spacingRight=4;overflow=hidden;rotatable=0;points=[[0,0.5],[1,0.5]];portConstraint=eastwest;" parent="SEt0Nu8GCRH9RDk-5Gde-48" vertex="1"><mxGeometry y="26" width="180" height="44" as="geometry"/></mxCell><mxCell id="SEt0Nu8GCRH9RDk-5Gde-50" value="" style="line;strokeWidth=1;fillColor=none;align=left;verticalAlign=middle;spacingTop=-1;spacingLeft=3;spacingRight=3;rotatable=0;labelPosition=right;points=[];portConstraint=eastwest;" parent="SEt0Nu8GCRH9RDk-5Gde-48" vertex="1"><mxGeometry y="70" width="180" height="8" as="geometry"/></mxCell><mxCell id="SEt0Nu8GCRH9RDk-5Gde-51" value="LIEU_NOM&#10;LIEU_LONGITUDE&#10;LIEU_LATITUDE&#10;LIEU_CRITERE&#10;LIEU_DESCRIPTION&#10;" style="text;strokeColor=none;fillColor=none;align=left;verticalAlign=top;spacingLeft=4;spacingRight=4;overflow=hidden;rotatable=0;points=[[0,0.5],[1,0.5]];portConstraint=eastwest;fontStyle=0" parent="SEt0Nu8GCRH9RDk-5Gde-48" vertex="1"><mxGeometry y="78" width="180" height="92" as="geometry"/></mxCell><mxCell id="SEt0Nu8GCRH9RDk-5Gde-57" value="DATE" style="swimlane;fontStyle=1;align=center;verticalAlign=top;childLayout=stackLayout;horizontal=1;startSize=26;horizontalStack=0;resizeParent=1;resizeParentMax=0;resizeLast=0;collapsible=1;marginBottom=0;" parent="1" vertex="1"><mxGeometry x="940" y="340" width="180" height="120" as="geometry"/></mxCell><mxCell id="SEt0Nu8GCRH9RDk-5Gde-58" value="PK_DATE&#10;------- DATE_ID" style="text;strokeColor=none;fillColor=none;align=left;verticalAlign=top;spacingLeft=4;spacingRight=4;overflow=hidden;rotatable=0;points=[[0,0.5],[1,0.5]];portConstraint=eastwest;" parent="SEt0Nu8GCRH9RDk-5Gde-57" vertex="1"><mxGeometry y="26" width="180" height="44" as="geometry"/></mxCell><mxCell id="SEt0Nu8GCRH9RDk-5Gde-59" value="" style="line;strokeWidth=1;fillColor=none;align=left;verticalAlign=middle;spacingTop=-1;spacingLeft=3;spacingRight=3;rotatable=0;labelPosition=right;points=[];portConstraint=eastwest;" parent="SEt0Nu8GCRH9RDk-5Gde-57" vertex="1"><mxGeometry y="70" width="180" height="8" as="geometry"/></mxCell><mxCell id="SEt0Nu8GCRH9RDk-5Gde-60" value="DATE_DATE&#10;DATE_HEURE" style="text;strokeColor=none;fillColor=none;align=left;verticalAlign=top;spacingLeft=4;spacingRight=4;overflow=hidden;rotatable=0;points=[[0,0.5],[1,0.5]];portConstraint=eastwest;" parent="SEt0Nu8GCRH9RDk-5Gde-57" vertex="1"><mxGeometry y="78" width="180" height="42" as="geometry"/></mxCell><mxCell id="SEt0Nu8GCRH9RDk-5Gde-70" value="MESSAGE" style="swimlane;fontStyle=1;align=center;verticalAlign=top;childLayout=stackLayout;horizontal=1;startSize=26;horizontalStack=0;resizeParent=1;resizeParentMax=0;resizeLast=0;collapsible=1;marginBottom=0;" parent="1" vertex="1"><mxGeometry x="300" y="1155" width="190" height="150" as="geometry"/></mxCell><mxCell id="SEt0Nu8GCRH9RDk-5Gde-71" value="PK_MESSAGE&#10;------- MESSAGE_ID" style="text;strokeColor=none;fillColor=none;align=left;verticalAlign=top;spacingLeft=4;spacingRight=4;overflow=hidden;rotatable=0;points=[[0,0.5],[1,0.5]];portConstraint=eastwest;" parent="SEt0Nu8GCRH9RDk-5Gde-70" vertex="1"><mxGeometry y="26" width="190" height="44" as="geometry"/></mxCell><mxCell id="SEt0Nu8GCRH9RDk-5Gde-72" value="" style="line;strokeWidth=1;fillColor=none;align=left;verticalAlign=middle;spacingTop=-1;spacingLeft=3;spacingRight=3;rotatable=0;labelPosition=right;points=[];portConstraint=eastwest;" parent="SEt0Nu8GCRH9RDk-5Gde-70" vertex="1"><mxGeometry y="70" width="190" height="8" as="geometry"/></mxCell><mxCell id="SEt0Nu8GCRH9RDk-5Gde-73" value="MESSAGE_NOM&#10;MESSAGE_DESCRIPTION&#10;MESSAGE_EXPEDITEUR&#10;MESSAGE_DATE" style="text;strokeColor=none;fillColor=none;align=left;verticalAlign=top;spacingLeft=4;spacingRight=4;overflow=hidden;rotatable=0;points=[[0,0.5],[1,0.5]];portConstraint=eastwest;" parent="SEt0Nu8GCRH9RDk-5Gde-70" vertex="1"><mxGeometry y="78" width="190" height="72" as="geometry"/></mxCell><mxCell id="74" value="" style="edgeStyle=orthogonalEdgeStyle;rounded=0;orthogonalLoop=1;jettySize=auto;html=1;entryX=1;entryY=0.5;entryDx=0;entryDy=0;exitX=0;exitY=0.5;exitDx=0;exitDy=0;" parent="1" source="SEt0Nu8GCRH9RDk-5Gde-29" target="64" edge="1"><mxGeometry relative="1" as="geometry"><mxPoint x="450" y="585" as="targetPoint"/><Array as="points"><mxPoint x="320" y="578"/><mxPoint x="320" y="73"/></Array></mxGeometry></mxCell><mxCell id="SEt0Nu8GCRH9RDk-5Gde-28" value="PROJET" style="swimlane;fontStyle=1;align=center;verticalAlign=top;childLayout=stackLayout;horizontal=1;startSize=26;horizontalStack=0;resizeParent=1;resizeParentMax=0;resizeLast=0;collapsible=1;marginBottom=0;" parent="1" vertex="1"><mxGeometry x="390" y="510" width="180" height="160" as="geometry"><mxRectangle x="775" y="490" width="70" height="26" as="alternateBounds"/></mxGeometry></mxCell><mxCell id="SEt0Nu8GCRH9RDk-5Gde-29" value="PK_PROJET&#10;------- PROJET_ID&#10;&#10;FK_PROJET&#10;------- CLIENT_ID" style="text;strokeColor=none;fillColor=none;align=left;verticalAlign=top;spacingLeft=4;spacingRight=4;overflow=hidden;rotatable=0;points=[[0,0.5],[1,0.5]];portConstraint=eastwest;" parent="SEt0Nu8GCRH9RDk-5Gde-28" vertex="1"><mxGeometry y="26" width="180" height="84" as="geometry"/></mxCell><mxCell id="SEt0Nu8GCRH9RDk-5Gde-30" value="" style="line;strokeWidth=1;fillColor=none;align=left;verticalAlign=middle;spacingTop=-1;spacingLeft=3;spacingRight=3;rotatable=0;labelPosition=right;points=[];portConstraint=eastwest;" parent="SEt0Nu8GCRH9RDk-5Gde-28" vertex="1"><mxGeometry y="110" width="180" height="8" as="geometry"/></mxCell><mxCell id="SEt0Nu8GCRH9RDk-5Gde-31" value="PROJET_NOM&#10;PROJET_DESCRIPTION&#10;&#10;" style="text;strokeColor=none;fillColor=none;align=left;verticalAlign=top;spacingLeft=4;spacingRight=4;overflow=hidden;rotatable=0;points=[[0,0.5],[1,0.5]];portConstraint=eastwest;" parent="SEt0Nu8GCRH9RDk-5Gde-28" vertex="1"><mxGeometry y="118" width="180" height="42" as="geometry"/></mxCell><mxCell id="I1SLngNOvAmTwP2ROaXQ-10" value="FICHIER_VIDEO" style="swimlane;fontStyle=1;align=center;verticalAlign=top;childLayout=stackLayout;horizontal=1;startSize=26;horizontalStack=0;resizeParent=1;resizeParentMax=0;resizeLast=0;collapsible=1;marginBottom=0;" parent="1" vertex="1"><mxGeometry x="960" y="1035" width="180" height="120" as="geometry"/></mxCell><mxCell id="49" value="PK_FICHIER_VIDEO&#10;------- MESSAGE_ID&#10;&#10;FK_FICHIER_VIDEO&#10;------- LIEU_ID" style="text;strokeColor=none;fillColor=none;align=left;verticalAlign=top;spacingLeft=4;spacingRight=4;overflow=hidden;rotatable=0;points=[[0,0.5],[1,0.5]];portConstraint=eastwest;" parent="I1SLngNOvAmTwP2ROaXQ-10" vertex="1"><mxGeometry y="26" width="180" height="74" as="geometry"/></mxCell><mxCell id="I1SLngNOvAmTwP2ROaXQ-12" value="" style="line;strokeWidth=1;fillColor=none;align=left;verticalAlign=middle;spacingTop=-1;spacingLeft=3;spacingRight=3;rotatable=0;labelPosition=right;points=[];portConstraint=eastwest;" parent="I1SLngNOvAmTwP2ROaXQ-10" vertex="1"><mxGeometry y="100" width="180" height="20" as="geometry"/></mxCell><mxCell id="63" value="" style="edgeStyle=orthogonalEdgeStyle;rounded=0;orthogonalLoop=1;jettySize=auto;html=1;entryX=0.389;entryY=1;entryDx=0;entryDy=0;entryPerimeter=0;" parent="1" source="I1SLngNOvAmTwP2ROaXQ-14" edge="1" target="SEt0Nu8GCRH9RDk-5Gde-51"><mxGeometry relative="1" as="geometry"><mxPoint x="680" y="1040" as="targetPoint"/></mxGeometry></mxCell><mxCell id="I1SLngNOvAmTwP2ROaXQ-14" value="PHOTO" style="swimlane;fontStyle=1;align=center;verticalAlign=top;childLayout=stackLayout;horizontal=1;startSize=26;horizontalStack=0;resizeParent=1;resizeParentMax=0;resizeLast=0;collapsible=1;marginBottom=0;" parent="1" vertex="1"><mxGeometry x="620" y="1440" width="180" height="160" as="geometry"/></mxCell><mxCell id="I1SLngNOvAmTwP2ROaXQ-15" value="PK_PHOTO&#10;------- PHOTO_ID&#10;&#10;FK_PHOTO&#10;------- LIEU_ID" style="text;strokeColor=none;fillColor=none;align=left;verticalAlign=top;spacingLeft=4;spacingRight=4;overflow=hidden;rotatable=0;points=[[0,0.5],[1,0.5]];portConstraint=eastwest;" parent="I1SLngNOvAmTwP2ROaXQ-14" vertex="1"><mxGeometry y="26" width="180" height="84" as="geometry"/></mxCell><mxCell id="I1SLngNOvAmTwP2ROaXQ-16" value="" style="line;strokeWidth=1;fillColor=none;align=left;verticalAlign=middle;spacingTop=-1;spacingLeft=3;spacingRight=3;rotatable=0;labelPosition=right;points=[];portConstraint=eastwest;" parent="I1SLngNOvAmTwP2ROaXQ-14" vertex="1"><mxGeometry y="110" width="180" height="8" as="geometry"/></mxCell><mxCell id="I1SLngNOvAmTwP2ROaXQ-17" value="PHOTO_DATE&#10;PHOTO_CHEMIN" style="text;strokeColor=none;fillColor=none;align=left;verticalAlign=top;spacingLeft=4;spacingRight=4;overflow=hidden;rotatable=0;points=[[0,0.5],[1,0.5]];portConstraint=eastwest;" parent="I1SLngNOvAmTwP2ROaXQ-14" vertex="1"><mxGeometry y="118" width="180" height="42" as="geometry"/></mxCell><mxCell id="I1SLngNOvAmTwP2ROaXQ-23" value="CRITERE" style="swimlane;fontStyle=1;align=center;verticalAlign=top;childLayout=stackLayout;horizontal=1;startSize=26;horizontalStack=0;resizeParent=1;resizeParentMax=0;resizeLast=0;collapsible=1;marginBottom=0;" parent="1" vertex="1"><mxGeometry x="970" y="1480" width="180" height="110" as="geometry"/></mxCell><mxCell id="I1SLngNOvAmTwP2ROaXQ-24" value="PK_CRITERE&#10;------- CRITERE_ID" style="text;strokeColor=none;fillColor=none;align=left;verticalAlign=top;spacingLeft=4;spacingRight=4;overflow=hidden;rotatable=0;points=[[0,0.5],[1,0.5]];portConstraint=eastwest;" parent="I1SLngNOvAmTwP2ROaXQ-23" vertex="1"><mxGeometry y="26" width="180" height="44" as="geometry"/></mxCell><mxCell id="I1SLngNOvAmTwP2ROaXQ-25" value="" style="line;strokeWidth=1;fillColor=none;align=left;verticalAlign=middle;spacingTop=-1;spacingLeft=3;spacingRight=3;rotatable=0;labelPosition=right;points=[];portConstraint=eastwest;" parent="I1SLngNOvAmTwP2ROaXQ-23" vertex="1"><mxGeometry y="70" width="180" height="8" as="geometry"/></mxCell><mxCell id="I1SLngNOvAmTwP2ROaXQ-26" value="CRITERE_NOM" style="text;strokeColor=none;fillColor=none;align=left;verticalAlign=top;spacingLeft=4;spacingRight=4;overflow=hidden;rotatable=0;points=[[0,0.5],[1,0.5]];portConstraint=eastwest;" parent="I1SLngNOvAmTwP2ROaXQ-23" vertex="1"><mxGeometry y="78" width="180" height="32" as="geometry"/></mxCell><mxCell id="95" value="" style="edgeStyle=orthogonalEdgeStyle;rounded=0;orthogonalLoop=1;jettySize=auto;html=1;fontColor=#9933FF;entryX=0;entryY=0.5;entryDx=0;entryDy=0;" edge="1" parent="1" source="I1SLngNOvAmTwP2ROaXQ-46" target="64"><mxGeometry relative="1" as="geometry"><mxPoint x="230" y="450" as="targetPoint"/></mxGeometry></mxCell><mxCell id="I1SLngNOvAmTwP2ROaXQ-46" value="CONTRAT" style="swimlane;fontStyle=1;align=center;verticalAlign=top;childLayout=stackLayout;horizontal=1;startSize=26;horizontalStack=0;resizeParent=1;resizeParentMax=0;resizeLast=0;collapsible=1;marginBottom=0;" parent="1" vertex="1"><mxGeometry x="-310" y="780" width="180" height="200" as="geometry"/></mxCell><mxCell id="I1SLngNOvAmTwP2ROaXQ-47" value="PK_CONTRAT&#10;------- CONTRAT_ID&#10;&#10;FK_CONTACT&#10;----- CLIENT_ID&#10;----- COLLABORATEUR_ID" style="text;strokeColor=none;fillColor=none;align=left;verticalAlign=top;spacingLeft=4;spacingRight=4;overflow=hidden;rotatable=0;points=[[0,0.5],[1,0.5]];portConstraint=eastwest;" parent="I1SLngNOvAmTwP2ROaXQ-46" vertex="1"><mxGeometry y="26" width="180" height="104" as="geometry"/></mxCell><mxCell id="I1SLngNOvAmTwP2ROaXQ-48" value="" style="line;strokeWidth=1;fillColor=none;align=left;verticalAlign=middle;spacingTop=-1;spacingLeft=3;spacingRight=3;rotatable=0;labelPosition=right;points=[];portConstraint=eastwest;" parent="I1SLngNOvAmTwP2ROaXQ-46" vertex="1"><mxGeometry y="130" width="180" height="8" as="geometry"/></mxCell><mxCell id="I1SLngNOvAmTwP2ROaXQ-49" value="CONTRAT_SIGNER&#10;CONTRAT_NOM&#10;CONTRAT_DESCRIPTION" style="text;strokeColor=none;fillColor=none;align=left;verticalAlign=top;spacingLeft=4;spacingRight=4;overflow=hidden;rotatable=0;points=[[0,0.5],[1,0.5]];portConstraint=eastwest;" parent="I1SLngNOvAmTwP2ROaXQ-46" vertex="1"><mxGeometry y="138" width="180" height="62" as="geometry"/></mxCell><mxCell id="I1SLngNOvAmTwP2ROaXQ-51" value="DEVIS" style="swimlane;fontStyle=1;align=center;verticalAlign=top;childLayout=stackLayout;horizontal=1;startSize=26;horizontalStack=0;resizeParent=1;resizeParentMax=0;resizeLast=0;collapsible=1;marginBottom=0;" parent="1" vertex="1"><mxGeometry x="-70" y="785" width="180" height="190" as="geometry"/></mxCell><mxCell id="I1SLngNOvAmTwP2ROaXQ-52" value="PK_DEVIS&#10;------- DEVIS_ID&#10;&#10;FK_CONTACT&#10;----- CLIENT_ID&#10;----- COLLABORATEUR_ID" style="text;strokeColor=none;fillColor=none;align=left;verticalAlign=top;spacingLeft=4;spacingRight=4;overflow=hidden;rotatable=0;points=[[0,0.5],[1,0.5]];portConstraint=eastwest;" parent="I1SLngNOvAmTwP2ROaXQ-51" vertex="1"><mxGeometry y="26" width="180" height="94" as="geometry"/></mxCell><mxCell id="I1SLngNOvAmTwP2ROaXQ-53" value="" style="line;strokeWidth=1;fillColor=none;align=left;verticalAlign=middle;spacingTop=-1;spacingLeft=3;spacingRight=3;rotatable=0;labelPosition=right;points=[];portConstraint=eastwest;" parent="I1SLngNOvAmTwP2ROaXQ-51" vertex="1"><mxGeometry y="120" width="180" height="8" as="geometry"/></mxCell><mxCell id="I1SLngNOvAmTwP2ROaXQ-54" value="DEVIS_VALIDER&#10;DEVIS_NOM&#10;DEVIS_DESCRIPTION" style="text;strokeColor=none;fillColor=none;align=left;verticalAlign=top;spacingLeft=4;spacingRight=4;overflow=hidden;rotatable=0;points=[[0,0.5],[1,0.5]];portConstraint=eastwest;" parent="I1SLngNOvAmTwP2ROaXQ-51" vertex="1"><mxGeometry y="128" width="180" height="62" as="geometry"/></mxCell><mxCell id="I1SLngNOvAmTwP2ROaXQ-59" value="FACTURE" style="swimlane;fontStyle=1;align=center;verticalAlign=top;childLayout=stackLayout;horizontal=1;startSize=26;horizontalStack=0;resizeParent=1;resizeParentMax=0;resizeLast=0;collapsible=1;marginBottom=0;" parent="1" vertex="1"><mxGeometry x="150" y="790" width="180" height="190" as="geometry"/></mxCell><mxCell id="I1SLngNOvAmTwP2ROaXQ-60" value="PK_FACTURE&#10;------- FACTURE_ID&#10;&#10;FK_CONTACT&#10;----- CLIENT_ID&#10;----- COLLABORATEUR_ID" style="text;strokeColor=none;fillColor=none;align=left;verticalAlign=top;spacingLeft=4;spacingRight=4;overflow=hidden;rotatable=0;points=[[0,0.5],[1,0.5]];portConstraint=eastwest;" parent="I1SLngNOvAmTwP2ROaXQ-59" vertex="1"><mxGeometry y="26" width="180" height="94" as="geometry"/></mxCell><mxCell id="I1SLngNOvAmTwP2ROaXQ-61" value="" style="line;strokeWidth=1;fillColor=none;align=left;verticalAlign=middle;spacingTop=-1;spacingLeft=3;spacingRight=3;rotatable=0;labelPosition=right;points=[];portConstraint=eastwest;" parent="I1SLngNOvAmTwP2ROaXQ-59" vertex="1"><mxGeometry y="120" width="180" height="8" as="geometry"/></mxCell><mxCell id="I1SLngNOvAmTwP2ROaXQ-62" value="FACTURE_VALIDER&#10;FACTURE_NOM&#10;FACTURE_DESCRIPTION" style="text;strokeColor=none;fillColor=none;align=left;verticalAlign=top;spacingLeft=4;spacingRight=4;overflow=hidden;rotatable=0;points=[[0,0.5],[1,0.5]];portConstraint=eastwest;" parent="I1SLngNOvAmTwP2ROaXQ-59" vertex="1"><mxGeometry y="128" width="180" height="62" as="geometry"/></mxCell><mxCell id="I1SLngNOvAmTwP2ROaXQ-74" value="EVENEMENT" style="swimlane;fontStyle=1;align=center;verticalAlign=top;childLayout=stackLayout;horizontal=1;startSize=26;horizontalStack=0;resizeParent=1;resizeParentMax=0;resizeLast=0;collapsible=1;marginBottom=0;" parent="1" vertex="1"><mxGeometry x="800" y="220" width="180" height="68" as="geometry"/></mxCell><mxCell id="I1SLngNOvAmTwP2ROaXQ-75" value="PK_EVENEMENT&#10;------- EVENEMENT_ID" style="text;strokeColor=none;fillColor=none;align=left;verticalAlign=top;spacingLeft=4;spacingRight=4;overflow=hidden;rotatable=0;points=[[0,0.5],[1,0.5]];portConstraint=eastwest;" parent="I1SLngNOvAmTwP2ROaXQ-74" vertex="1"><mxGeometry y="26" width="180" height="34" as="geometry"/></mxCell><mxCell id="I1SLngNOvAmTwP2ROaXQ-76" value="" style="line;strokeWidth=1;fillColor=none;align=left;verticalAlign=middle;spacingTop=-1;spacingLeft=3;spacingRight=3;rotatable=0;labelPosition=right;points=[];portConstraint=eastwest;" parent="I1SLngNOvAmTwP2ROaXQ-74" vertex="1"><mxGeometry y="60" width="180" height="8" as="geometry"/></mxCell><mxCell id="8" value="PHOTOGRAPHE" style="swimlane;fontStyle=1;align=center;verticalAlign=top;childLayout=stackLayout;horizontal=1;startSize=26;horizontalStack=0;resizeParent=1;resizeParentMax=0;resizeLast=0;collapsible=1;marginBottom=0;" parent="1" vertex="1"><mxGeometry x="760" y="20" width="190" height="140" as="geometry"/></mxCell><mxCell id="69" value="PK_PHOTOGRAPHE&#10;------- PHOTOGRAPHE_ID" style="text;strokeColor=none;fillColor=none;align=left;verticalAlign=top;spacingLeft=4;spacingRight=4;overflow=hidden;rotatable=0;points=[[0,0.5],[1,0.5]];portConstraint=eastwest;" parent="8" vertex="1"><mxGeometry y="26" width="190" height="34" as="geometry"/></mxCell><mxCell id="9" value="" style="line;strokeWidth=1;fillColor=none;align=left;verticalAlign=middle;spacingTop=-1;spacingLeft=3;spacingRight=3;rotatable=0;labelPosition=right;points=[];portConstraint=eastwest;" parent="8" vertex="1"><mxGeometry y="60" width="190" height="8" as="geometry"/></mxCell><mxCell id="92" value="PHOTOGRAPHE_NOM&#10;PHOTOGRAPHE_PRENOM&#10;PHOTOGRAPHE_MAIL&#10;PHOTOGRAPHE_MDP" style="text;strokeColor=none;fillColor=none;align=left;verticalAlign=top;spacingLeft=4;spacingRight=4;overflow=hidden;rotatable=0;points=[[0,0.5],[1,0.5]];portConstraint=eastwest;" vertex="1" parent="8"><mxGeometry y="68" width="190" height="72" as="geometry"/></mxCell><mxCell id="17" value="" style="edgeStyle=orthogonalEdgeStyle;rounded=0;orthogonalLoop=1;jettySize=auto;html=1;entryX=1;entryY=0.5;entryDx=0;entryDy=0;" parent="1" source="10" target="SEt0Nu8GCRH9RDk-5Gde-49" edge="1"><mxGeometry relative="1" as="geometry"><mxPoint x="860" y="817.9999999999998" as="targetPoint"/></mxGeometry></mxCell><mxCell id="22" value="" style="edgeStyle=orthogonalEdgeStyle;rounded=0;orthogonalLoop=1;jettySize=auto;html=1;entryX=1;entryY=0.5;entryDx=0;entryDy=0;" parent="1" source="10" target="8" edge="1"><mxGeometry relative="1" as="geometry"><mxPoint x="1200" y="817.9999999999998" as="targetPoint"/><Array as="points"><mxPoint x="1150" y="818"/><mxPoint x="1150" y="90"/></Array></mxGeometry></mxCell><mxCell id="10" value="CONSULTE" style="swimlane;fontStyle=1;align=center;verticalAlign=top;childLayout=stackLayout;horizontal=1;startSize=26;horizontalStack=0;resizeParent=1;resizeParentMax=0;resizeLast=0;collapsible=1;marginBottom=0;" parent="1" vertex="1"><mxGeometry x="940" y="760" width="180" height="98" as="geometry"/></mxCell><mxCell id="75" value="PK_FK_CONSULTE&#10;------- PHOTOGRAPHE_ID&#10;------- LIEU_ID" style="text;strokeColor=none;fillColor=none;align=left;verticalAlign=top;spacingLeft=4;spacingRight=4;overflow=hidden;rotatable=0;points=[[0,0.5],[1,0.5]];portConstraint=eastwest;" vertex="1" parent="10"><mxGeometry y="26" width="180" height="64" as="geometry"/></mxCell><mxCell id="12" value="" style="line;strokeWidth=1;fillColor=none;align=left;verticalAlign=middle;spacingTop=-1;spacingLeft=3;spacingRight=3;rotatable=0;labelPosition=right;points=[];portConstraint=eastwest;" parent="10" vertex="1"><mxGeometry y="90" width="180" height="8" as="geometry"/></mxCell><mxCell id="34" value="" style="edgeStyle=orthogonalEdgeStyle;rounded=0;orthogonalLoop=1;jettySize=auto;html=1;entryX=1;entryY=0.5;entryDx=0;entryDy=0;" parent="1" source="23" target="SEt0Nu8GCRH9RDk-5Gde-29" edge="1"><mxGeometry relative="1" as="geometry"><Array as="points"><mxPoint x="780" y="608"/><mxPoint x="780" y="578"/></Array></mxGeometry></mxCell><mxCell id="23" value="A_LIEU" style="swimlane;fontStyle=1;align=center;verticalAlign=top;childLayout=stackLayout;horizontal=1;startSize=26;horizontalStack=0;resizeParent=1;resizeParentMax=0;resizeLast=0;collapsible=1;marginBottom=0;" parent="1" vertex="1"><mxGeometry x="800" y="570" width="180" height="76" as="geometry"/></mxCell><mxCell id="25" value="PK_FK_A_LIEU&#10;------ DATE_ID&#10;------ PROJET_ID" style="text;strokeColor=none;fillColor=none;align=left;verticalAlign=top;spacingLeft=4;spacingRight=4;overflow=hidden;rotatable=0;points=[[0,0.5],[1,0.5]];portConstraint=eastwest;" parent="23" vertex="1"><mxGeometry y="26" width="180" height="42" as="geometry"/></mxCell><mxCell id="24" value="" style="line;strokeWidth=1;fillColor=none;align=left;verticalAlign=middle;spacingTop=-1;spacingLeft=3;spacingRight=3;rotatable=0;labelPosition=right;points=[];portConstraint=eastwest;" parent="23" vertex="1"><mxGeometry y="68" width="180" height="8" as="geometry"/></mxCell><mxCell id="26" value="" style="edgeStyle=orthogonalEdgeStyle;rounded=0;orthogonalLoop=1;jettySize=auto;html=1;entryX=0;entryY=0.5;entryDx=0;entryDy=0;" parent="1" source="25" target="SEt0Nu8GCRH9RDk-5Gde-58" edge="1"><mxGeometry relative="1" as="geometry"/></mxCell><mxCell id="41" value="CONCERNE" style="swimlane;fontStyle=1;align=center;verticalAlign=top;childLayout=stackLayout;horizontal=1;startSize=26;horizontalStack=0;resizeParent=1;resizeParentMax=0;resizeLast=0;collapsible=1;marginBottom=0;" parent="1" vertex="1"><mxGeometry x="720" y="752" width="180" height="98" as="geometry"/></mxCell><mxCell id="77" value="PK_FK_CONCERNE&#10;------- PROJET_ID&#10;------- LIEU_ID" style="text;strokeColor=none;fillColor=none;align=left;verticalAlign=top;spacingLeft=4;spacingRight=4;overflow=hidden;rotatable=0;points=[[0,0.5],[1,0.5]];portConstraint=eastwest;" vertex="1" parent="41"><mxGeometry y="26" width="180" height="64" as="geometry"/></mxCell><mxCell id="42" value="" style="line;strokeWidth=1;fillColor=none;align=left;verticalAlign=middle;spacingTop=-1;spacingLeft=3;spacingRight=3;rotatable=0;labelPosition=right;points=[];portConstraint=eastwest;" parent="41" vertex="1"><mxGeometry y="90" width="180" height="8" as="geometry"/></mxCell><mxCell id="46" value="" style="edgeStyle=orthogonalEdgeStyle;rounded=0;orthogonalLoop=1;jettySize=auto;html=1;entryX=1;entryY=0.5;entryDx=0;entryDy=0;exitX=0.25;exitY=0;exitDx=0;exitDy=0;" parent="1" source="41" target="SEt0Nu8GCRH9RDk-5Gde-31" edge="1"><mxGeometry relative="1" as="geometry"/></mxCell><mxCell id="52" value="" style="edgeStyle=orthogonalEdgeStyle;rounded=0;orthogonalLoop=1;jettySize=auto;html=1;entryX=1;entryY=0.5;entryDx=0;entryDy=0;exitX=0;exitY=0.5;exitDx=0;exitDy=0;" parent="1" source="49" target="SEt0Nu8GCRH9RDk-5Gde-51" edge="1"><mxGeometry relative="1" as="geometry"><mxPoint x="1040" y="866" as="sourcePoint"/><mxPoint x="800" y="918" as="targetPoint"/></mxGeometry></mxCell><mxCell id="40" value="" style="edgeStyle=orthogonalEdgeStyle;rounded=0;orthogonalLoop=1;jettySize=auto;html=1;entryX=0;entryY=0.25;entryDx=0;entryDy=0;exitX=0.5;exitY=0;exitDx=0;exitDy=0;" parent="1" source="80" target="I1SLngNOvAmTwP2ROaXQ-74" edge="1"><mxGeometry relative="1" as="geometry"><Array as="points"><mxPoint x="740" y="237"/></Array></mxGeometry></mxCell><mxCell id="53" value="CORRESPOND" style="swimlane;fontStyle=1;align=center;verticalAlign=top;childLayout=stackLayout;horizontal=1;startSize=26;horizontalStack=0;resizeParent=1;resizeParentMax=0;resizeLast=0;collapsible=1;marginBottom=0;" parent="1" vertex="1"><mxGeometry x="840" y="1240" width="180" height="88" as="geometry"/></mxCell><mxCell id="76" value="PK_FK_CORRESPOND&#10;------- CRITERE_ID&#10;------- LIEU_ID" style="text;strokeColor=none;fillColor=none;align=left;verticalAlign=top;spacingLeft=4;spacingRight=4;overflow=hidden;rotatable=0;points=[[0,0.5],[1,0.5]];portConstraint=eastwest;" vertex="1" parent="53"><mxGeometry y="26" width="180" height="54" as="geometry"/></mxCell><mxCell id="54" value="" style="line;strokeWidth=1;fillColor=none;align=left;verticalAlign=middle;spacingTop=-1;spacingLeft=3;spacingRight=3;rotatable=0;labelPosition=right;points=[];portConstraint=eastwest;" parent="53" vertex="1"><mxGeometry y="80" width="180" height="8" as="geometry"/></mxCell><mxCell id="57" value="" style="edgeStyle=orthogonalEdgeStyle;rounded=0;orthogonalLoop=1;jettySize=auto;html=1;entryX=0.807;entryY=0.99;entryDx=0;entryDy=0;exitX=0.25;exitY=0;exitDx=0;exitDy=0;entryPerimeter=0;" parent="1" source="53" target="SEt0Nu8GCRH9RDk-5Gde-51" edge="1"><mxGeometry relative="1" as="geometry"><mxPoint x="910" y="1113" as="sourcePoint"/><mxPoint x="800" y="999.0000000000002" as="targetPoint"/><Array as="points"><mxPoint x="885" y="1170"/><mxPoint x="755" y="1170"/></Array></mxGeometry></mxCell><mxCell id="58" value="" style="edgeStyle=orthogonalEdgeStyle;rounded=0;orthogonalLoop=1;jettySize=auto;html=1;entryX=0.75;entryY=0;entryDx=0;entryDy=0;exitX=1;exitY=0.5;exitDx=0;exitDy=0;" parent="1" source="76" target="I1SLngNOvAmTwP2ROaXQ-23" edge="1"><mxGeometry relative="1" as="geometry"><mxPoint x="990" y="1319" as="sourcePoint"/><mxPoint x="810" y="1009.0000000000002" as="targetPoint"/></mxGeometry></mxCell><mxCell id="79" value="" style="edgeStyle=orthogonalEdgeStyle;rounded=0;orthogonalLoop=1;jettySize=auto;html=1;entryX=0.5;entryY=0;entryDx=0;entryDy=0;exitX=0;exitY=0.5;exitDx=0;exitDy=0;" edge="1" parent="1" source="77" target="SEt0Nu8GCRH9RDk-5Gde-48"><mxGeometry relative="1" as="geometry"><mxPoint x="775" y="739" as="sourcePoint"/><mxPoint x="720" y="634" as="targetPoint"/></mxGeometry></mxCell><mxCell id="80" value="INTERFERT" style="swimlane;fontStyle=1;align=center;verticalAlign=top;childLayout=stackLayout;horizontal=1;startSize=26;horizontalStack=0;resizeParent=1;resizeParentMax=0;resizeLast=0;collapsible=1;marginBottom=0;" vertex="1" parent="1"><mxGeometry x="650" y="350" width="180" height="88" as="geometry"/></mxCell><mxCell id="81" value="PK_FK_INTERFERT&#10;------ EVENEMENT_ID&#10;------ PROJET_ID" style="text;strokeColor=none;fillColor=none;align=left;verticalAlign=top;spacingLeft=4;spacingRight=4;overflow=hidden;rotatable=0;points=[[0,0.5],[1,0.5]];portConstraint=eastwest;" vertex="1" parent="80"><mxGeometry y="26" width="180" height="54" as="geometry"/></mxCell><mxCell id="82" value="" style="line;strokeWidth=1;fillColor=none;align=left;verticalAlign=middle;spacingTop=-1;spacingLeft=3;spacingRight=3;rotatable=0;labelPosition=right;points=[];portConstraint=eastwest;" vertex="1" parent="80"><mxGeometry y="80" width="180" height="8" as="geometry"/></mxCell><mxCell id="83" value="" style="edgeStyle=orthogonalEdgeStyle;rounded=0;orthogonalLoop=1;jettySize=auto;html=1;entryX=0.75;entryY=0;entryDx=0;entryDy=0;exitX=0.5;exitY=1;exitDx=0;exitDy=0;" edge="1" parent="1" source="80" target="SEt0Nu8GCRH9RDk-5Gde-28"><mxGeometry relative="1" as="geometry"><mxPoint x="810" y="618" as="sourcePoint"/><mxPoint x="730" y="548" as="targetPoint"/><Array as="points"><mxPoint x="740" y="490"/><mxPoint x="525" y="490"/></Array></mxGeometry></mxCell><mxCell id="84" value="GERE" style="swimlane;fontStyle=1;align=center;verticalAlign=top;childLayout=stackLayout;horizontal=1;startSize=26;horizontalStack=0;resizeParent=1;resizeParentMax=0;resizeLast=0;collapsible=1;marginBottom=0;" vertex="1" parent="1"><mxGeometry x="420" y="350" width="180" height="88" as="geometry"/></mxCell><mxCell id="85" value="PK_FK_GERE&#10;------ COLLABORATEUR_ID&#10;------ PROJET_ID" style="text;strokeColor=none;fillColor=none;align=left;verticalAlign=top;spacingLeft=4;spacingRight=4;overflow=hidden;rotatable=0;points=[[0,0.5],[1,0.5]];portConstraint=eastwest;" vertex="1" parent="84"><mxGeometry y="26" width="180" height="54" as="geometry"/></mxCell><mxCell id="86" value="" style="line;strokeWidth=1;fillColor=none;align=left;verticalAlign=middle;spacingTop=-1;spacingLeft=3;spacingRight=3;rotatable=0;labelPosition=right;points=[];portConstraint=eastwest;" vertex="1" parent="84"><mxGeometry y="80" width="180" height="8" as="geometry"/></mxCell><mxCell id="88" value="" style="edgeStyle=orthogonalEdgeStyle;rounded=0;orthogonalLoop=1;jettySize=auto;html=1;exitX=0.5;exitY=0;exitDx=0;exitDy=0;entryX=1;entryY=0.5;entryDx=0;entryDy=0;" edge="1" parent="1" source="84" target="91"><mxGeometry relative="1" as="geometry"><mxPoint x="475" y="448" as="sourcePoint"/><mxPoint x="610" y="200" as="targetPoint"/><Array as="points"><mxPoint x="510" y="230"/><mxPoint x="610" y="230"/><mxPoint x="610" y="124"/></Array></mxGeometry></mxCell><mxCell id="96" value="" style="edgeStyle=orthogonalEdgeStyle;rounded=0;orthogonalLoop=1;jettySize=auto;html=1;fontColor=#9933FF;entryX=0;entryY=0.5;entryDx=0;entryDy=0;exitX=0;exitY=0;exitDx=0;exitDy=0;" edge="1" parent="1" source="I1SLngNOvAmTwP2ROaXQ-51" target="89"><mxGeometry relative="1" as="geometry"><mxPoint x="150" y="790" as="sourcePoint"/><mxPoint x="300" y="153" as="targetPoint"/><Array as="points"><mxPoint x="-70" y="134"/></Array></mxGeometry></mxCell><mxCell id="98" value="" style="edgeStyle=orthogonalEdgeStyle;rounded=0;orthogonalLoop=1;jettySize=auto;html=1;fontColor=#9933FF;exitX=0.25;exitY=0;exitDx=0;exitDy=0;entryX=1;entryY=0.5;entryDx=0;entryDy=0;" edge="1" parent="1" source="I1SLngNOvAmTwP2ROaXQ-59" target="89"><mxGeometry relative="1" as="geometry"><mxPoint x="265" y="1010" as="sourcePoint"/><mxPoint x="190" y="120" as="targetPoint"/><Array as="points"><mxPoint x="200" y="790"/><mxPoint x="200" y="134"/></Array></mxGeometry></mxCell><mxCell id="99" value="" style="edgeStyle=orthogonalEdgeStyle;rounded=0;orthogonalLoop=1;jettySize=auto;html=1;fontColor=#9933FF;exitX=0.5;exitY=0;exitDx=0;exitDy=0;entryX=0.296;entryY=1.001;entryDx=0;entryDy=0;entryPerimeter=0;" edge="1" parent="1" source="I1SLngNOvAmTwP2ROaXQ-59" target="91"><mxGeometry relative="1" as="geometry"><mxPoint x="325" y="1230" as="sourcePoint"/><mxPoint x="450" y="230" as="targetPoint"/><Array as="points"><mxPoint x="240" y="320"/><mxPoint x="453" y="320"/></Array></mxGeometry></mxCell><mxCell id="100" value="" style="edgeStyle=orthogonalEdgeStyle;rounded=0;orthogonalLoop=1;jettySize=auto;html=1;fontColor=#9933FF;entryX=0;entryY=0.5;entryDx=0;entryDy=0;exitX=0.75;exitY=0;exitDx=0;exitDy=0;" edge="1" parent="1" source="I1SLngNOvAmTwP2ROaXQ-51" target="91"><mxGeometry relative="1" as="geometry"><mxPoint x="220" y="1006" as="sourcePoint"/><mxPoint x="255" y="210" as="targetPoint"/><Array as="points"><mxPoint x="65" y="290"/><mxPoint x="380" y="290"/><mxPoint x="380" y="124"/></Array></mxGeometry></mxCell><mxCell id="101" value="" style="edgeStyle=orthogonalEdgeStyle;rounded=0;orthogonalLoop=1;jettySize=auto;html=1;fontColor=#9933FF;entryX=0;entryY=0.5;entryDx=0;entryDy=0;exitX=0.75;exitY=0;exitDx=0;exitDy=0;" edge="1" parent="1" source="I1SLngNOvAmTwP2ROaXQ-46" target="65"><mxGeometry relative="1" as="geometry"><mxPoint x="150" y="770" as="sourcePoint"/><mxPoint x="300" y="153" as="targetPoint"/><Array as="points"><mxPoint x="-175" y="250"/><mxPoint x="360" y="250"/><mxPoint x="360" y="63"/></Array></mxGeometry></mxCell><mxCell id="103" value="" style="edgeStyle=orthogonalEdgeStyle;rounded=0;orthogonalLoop=1;jettySize=auto;html=1;entryX=0.5;entryY=0;entryDx=0;entryDy=0;exitX=0.5;exitY=1;exitDx=0;exitDy=0;" edge="1" parent="1" source="84" target="SEt0Nu8GCRH9RDk-5Gde-28"><mxGeometry relative="1" as="geometry"><mxPoint x="815" y="470" as="sourcePoint"/><mxPoint x="600" y="542" as="targetPoint"/><Array as="points"><mxPoint x="510" y="460"/><mxPoint x="480" y="460"/></Array></mxGeometry></mxCell></root></mxGraphModel></diagram></mxfile>